<svg xmlns="http://www.w3.org/2000/svg" viewBox="0 0 512 512" style="height: 512px; width: 512px;"><path d="M0 0h512v512H0z" fill="#000" fill-opacity="1"></path><g class="" transform="translate(0,0)" style=""><path d="M121 17v30h270V17H121zm16 48v46h30V65h-30zm208 0v46h30V65h-30zm-224 64v30h270v-30H121zm16 48v46h30v-46h-30zm208 0v46h30v-46h-30zm-224 64v30h270v-30H121zm16 48v46h30v-46h-30zm208 0v46h30v-46h-30zm-224 64v30h270v-30H121zm16 48v46h30v-46h-30zm208 0v46h30v-46h-30zm-224 64v30h270v-30H121z" fill="#fff" fill-opacity="1"></path></g></svg>